<svg width="172" height="32" viewBox="0 0 172 32" fill="none" xmlns="http://www.w3.org/2000/svg">
<rect width="172" height="32" rx="1" fill="#2E4FD7"/>
<path d="M21.233 21V10.8182H24.7926C25.5019 10.8182 26.0869 10.9408 26.5476 11.1861C27.0083 11.428 27.3513 11.7545 27.5767 12.1655C27.8021 12.5732 27.9148 13.0256 27.9148 13.5227C27.9148 13.9602 27.8369 14.3215 27.6811 14.6065C27.5286 14.8916 27.3265 15.117 27.0746 15.2827C26.826 15.4484 26.5559 15.571 26.2642 15.6506V15.75C26.5758 15.7699 26.889 15.8793 27.2038 16.0781C27.5187 16.277 27.7822 16.562 27.9943 16.9332C28.2064 17.3045 28.3125 17.7585 28.3125 18.2955C28.3125 18.8059 28.1965 19.2649 27.9645 19.6726C27.7325 20.0803 27.3662 20.4034 26.8658 20.642C26.3653 20.8807 25.714 21 24.9119 21H21.233ZM22.4659 19.9062H24.9119C25.7173 19.9062 26.2891 19.7505 26.6271 19.4389C26.9685 19.1241 27.1392 18.7429 27.1392 18.2955C27.1392 17.9508 27.0514 17.6326 26.8757 17.3409C26.7 17.0459 26.4498 16.8106 26.125 16.6349C25.8002 16.456 25.4157 16.3665 24.9716 16.3665H22.4659V19.9062ZM22.4659 15.2926H24.7528C25.1241 15.2926 25.4588 15.2197 25.7571 15.0739C26.0587 14.928 26.2973 14.7225 26.473 14.4574C26.652 14.1922 26.7415 13.8807 26.7415 13.5227C26.7415 13.0753 26.5857 12.6958 26.2741 12.3842C25.9626 12.0694 25.4688 11.9119 24.7926 11.9119H22.4659V15.2926ZM33.0316 21.1591C32.3422 21.1591 31.7373 20.995 31.217 20.6669C30.6999 20.3388 30.2956 19.8797 30.0039 19.2898C29.7156 18.6998 29.5714 18.0104 29.5714 17.2216C29.5714 16.4261 29.7156 15.7318 30.0039 15.1385C30.2956 14.5452 30.6999 14.0845 31.217 13.7564C31.7373 13.4283 32.3422 13.2642 33.0316 13.2642C33.721 13.2642 34.3242 13.4283 34.8413 13.7564C35.3616 14.0845 35.766 14.5452 36.0543 15.1385C36.346 15.7318 36.4918 16.4261 36.4918 17.2216C36.4918 18.0104 36.346 18.6998 36.0543 19.2898C35.766 19.8797 35.3616 20.3388 34.8413 20.6669C34.3242 20.995 33.721 21.1591 33.0316 21.1591ZM33.0316 20.1051C33.5553 20.1051 33.9862 19.9709 34.3242 19.7024C34.6623 19.4339 34.9125 19.081 35.0749 18.6435C35.2373 18.206 35.3185 17.732 35.3185 17.2216C35.3185 16.7112 35.2373 16.2356 35.0749 15.7947C34.9125 15.3539 34.6623 14.9976 34.3242 14.7259C33.9862 14.4541 33.5553 14.3182 33.0316 14.3182C32.5079 14.3182 32.0771 14.4541 31.739 14.7259C31.4009 14.9976 31.1507 15.3539 30.9883 15.7947C30.8259 16.2356 30.7447 16.7112 30.7447 17.2216C30.7447 17.732 30.8259 18.206 30.9883 18.6435C31.1507 19.081 31.4009 19.4339 31.739 19.7024C32.0771 19.9709 32.5079 20.1051 33.0316 20.1051ZM41.1351 21.1591C40.4457 21.1591 39.8409 20.995 39.3205 20.6669C38.8034 20.3388 38.3991 19.8797 38.1074 19.2898C37.8191 18.6998 37.6749 18.0104 37.6749 17.2216C37.6749 16.4261 37.8191 15.7318 38.1074 15.1385C38.3991 14.5452 38.8034 14.0845 39.3205 13.7564C39.8409 13.4283 40.4457 13.2642 41.1351 13.2642C41.8245 13.2642 42.4277 13.4283 42.9448 13.7564C43.4651 14.0845 43.8695 14.5452 44.1578 15.1385C44.4495 15.7318 44.5953 16.4261 44.5953 17.2216C44.5953 18.0104 44.4495 18.6998 44.1578 19.2898C43.8695 19.8797 43.4651 20.3388 42.9448 20.6669C42.4277 20.995 41.8245 21.1591 41.1351 21.1591ZM41.1351 20.1051C41.6588 20.1051 42.0897 19.9709 42.4277 19.7024C42.7658 19.4339 43.016 19.081 43.1784 18.6435C43.3409 18.206 43.4221 17.732 43.4221 17.2216C43.4221 16.7112 43.3409 16.2356 43.1784 15.7947C43.016 15.3539 42.7658 14.9976 42.4277 14.7259C42.0897 14.4541 41.6588 14.3182 41.1351 14.3182C40.6114 14.3182 40.1806 14.4541 39.8425 14.7259C39.5044 14.9976 39.2542 15.3539 39.0918 15.7947C38.9294 16.2356 38.8482 16.7112 38.8482 17.2216C38.8482 17.732 38.9294 18.206 39.0918 18.6435C39.2542 19.081 39.5044 19.4339 39.8425 19.7024C40.1806 19.9709 40.6114 20.1051 41.1351 20.1051ZM47.2301 18.2159L47.2102 16.7642H47.4489L50.7898 13.3636H52.2415L48.6818 16.9631H48.5824L47.2301 18.2159ZM46.1364 21V10.8182H47.3097V21H46.1364ZM50.9886 21L48.0057 17.2216L48.8409 16.4062L52.4801 21H50.9886ZM57.7658 21H56.4732L60.2118 10.8182H61.4846L65.2232 21H63.9306L60.888 12.429H60.8084L57.7658 21ZM58.2431 17.0227H63.4533V18.1165H58.2431V17.0227ZM70.2466 10.8182H71.7182L75.1784 19.2699H75.2978L78.758 10.8182H80.2296V21H79.0762V13.2642H78.9767L75.7949 21H74.6813L71.4995 13.2642H71.4V21H70.2466V10.8182ZM85.4943 21.1591C84.7585 21.1591 84.1238 20.9967 83.5902 20.6719C83.0599 20.3438 82.6506 19.8864 82.3622 19.2997C82.0772 18.7098 81.9347 18.0237 81.9347 17.2415C81.9347 16.4593 82.0772 15.7699 82.3622 15.1733C82.6506 14.5734 83.0516 14.1061 83.5653 13.7713C84.0824 13.4332 84.6856 13.2642 85.375 13.2642C85.7727 13.2642 86.1655 13.3305 86.5533 13.4631C86.9411 13.5956 87.294 13.8111 87.6122 14.1094C87.9304 14.4044 88.1839 14.7955 88.3729 15.2827C88.5618 15.7699 88.6562 16.3698 88.6562 17.0824V17.5795H82.7699V16.5653H87.4631C87.4631 16.1345 87.3769 15.75 87.2045 15.4119C87.0355 15.0739 86.7936 14.8071 86.4787 14.6115C86.1671 14.416 85.7992 14.3182 85.375 14.3182C84.9077 14.3182 84.5033 14.4342 84.1619 14.6662C83.8239 14.8949 83.5637 15.1932 83.3814 15.5611C83.1991 15.929 83.108 16.3234 83.108 16.7443V17.4205C83.108 17.9972 83.2074 18.486 83.4062 18.8871C83.6084 19.2848 83.8885 19.5881 84.2464 19.7969C84.6044 20.0024 85.0204 20.1051 85.4943 20.1051C85.8026 20.1051 86.081 20.062 86.3295 19.9759C86.5814 19.8864 86.7985 19.7538 86.9808 19.5781C87.1631 19.3991 87.304 19.1771 87.4034 18.9119L88.5369 19.2301C88.4176 19.6146 88.2171 19.9527 87.9354 20.2443C87.6536 20.5327 87.3056 20.758 86.8913 20.9205C86.477 21.0795 86.0114 21.1591 85.4943 21.1591ZM93.3928 21.1591C92.657 21.1591 92.0223 20.9967 91.4886 20.6719C90.9583 20.3438 90.549 19.8864 90.2607 19.2997C89.9756 18.7098 89.8331 18.0237 89.8331 17.2415C89.8331 16.4593 89.9756 15.7699 90.2607 15.1733C90.549 14.5734 90.95 14.1061 91.4638 13.7713C91.9808 13.4332 92.584 13.2642 93.2734 13.2642C93.6712 13.2642 94.0639 13.3305 94.4517 13.4631C94.8395 13.5956 95.1925 13.8111 95.5107 14.1094C95.8288 14.4044 96.0824 14.7955 96.2713 15.2827C96.4602 15.7699 96.5547 16.3698 96.5547 17.0824V17.5795H90.6683V16.5653H95.3615C95.3615 16.1345 95.2753 15.75 95.103 15.4119C94.9339 15.0739 94.692 14.8071 94.3771 14.6115C94.0656 14.416 93.6977 14.3182 93.2734 14.3182C92.8061 14.3182 92.4018 14.4342 92.0604 14.6662C91.7223 14.8949 91.4621 15.1932 91.2798 15.5611C91.0975 15.929 91.0064 16.3234 91.0064 16.7443V17.4205C91.0064 17.9972 91.1058 18.486 91.3047 18.8871C91.5069 19.2848 91.7869 19.5881 92.1449 19.7969C92.5028 20.0024 92.9188 20.1051 93.3928 20.1051C93.701 20.1051 93.9794 20.062 94.228 19.9759C94.4799 19.8864 94.697 19.7538 94.8793 19.5781C95.0616 19.3991 95.2024 19.1771 95.3018 18.9119L96.4354 19.2301C96.3161 19.6146 96.1155 19.9527 95.8338 20.2443C95.5521 20.5327 95.2041 20.758 94.7898 20.9205C94.3755 21.0795 93.9098 21.1591 93.3928 21.1591ZM101.411 13.3636V14.358H97.4531V13.3636H101.411ZM98.6065 11.5341H99.7798V18.8125C99.7798 19.1439 99.8279 19.3925 99.924 19.5582C100.023 19.7206 100.149 19.83 100.302 19.8864C100.458 19.9394 100.622 19.9659 100.794 19.9659C100.923 19.9659 101.029 19.9593 101.112 19.946C101.195 19.9295 101.261 19.9162 101.311 19.9062L101.55 20.9602C101.47 20.9901 101.359 21.0199 101.217 21.0497C101.074 21.0829 100.893 21.0994 100.675 21.0994C100.343 21.0994 100.018 21.0282 99.7003 20.8857C99.3854 20.7431 99.1236 20.526 98.9148 20.2344C98.7093 19.9427 98.6065 19.5748 98.6065 19.1307V11.5341ZM102.925 21V13.3636H104.099V21H102.925ZM103.522 12.0909C103.293 12.0909 103.096 12.013 102.93 11.8572C102.768 11.7015 102.687 11.5142 102.687 11.2955C102.687 11.0767 102.768 10.8894 102.93 10.7337C103.096 10.5779 103.293 10.5 103.522 10.5C103.751 10.5 103.946 10.5779 104.109 10.7337C104.274 10.8894 104.357 11.0767 104.357 11.2955C104.357 11.5142 104.274 11.7015 104.109 11.8572C103.946 12.013 103.751 12.0909 103.522 12.0909ZM107.171 16.4062V21H105.998V13.3636H107.131V14.5568H107.231C107.41 14.169 107.681 13.8575 108.046 13.6222C108.411 13.3835 108.881 13.2642 109.458 13.2642C109.975 13.2642 110.427 13.3703 110.815 13.5824C111.203 13.7912 111.505 14.1094 111.72 14.5369C111.935 14.9612 112.043 15.4981 112.043 16.1477V21H110.87V16.2273C110.87 15.6274 110.714 15.16 110.403 14.8253C110.091 14.4872 109.663 14.3182 109.12 14.3182C108.745 14.3182 108.411 14.3994 108.116 14.5618C107.824 14.7242 107.594 14.9612 107.425 15.2727C107.256 15.5843 107.171 15.9621 107.171 16.4062ZM117.02 24.0227C116.453 24.0227 115.966 23.9498 115.558 23.804C115.15 23.6615 114.81 23.4725 114.539 23.2372C114.27 23.0052 114.056 22.7566 113.897 22.4915L114.832 21.8352C114.938 21.9744 115.072 22.1335 115.235 22.3125C115.397 22.4948 115.619 22.6522 115.901 22.7848C116.186 22.9207 116.559 22.9886 117.02 22.9886C117.636 22.9886 118.145 22.8395 118.546 22.5412C118.947 22.2429 119.147 21.7756 119.147 21.1392V19.5881H119.048C118.962 19.7273 118.839 19.8996 118.68 20.1051C118.524 20.3073 118.299 20.4879 118.004 20.647C117.712 20.8028 117.318 20.8807 116.821 20.8807C116.204 20.8807 115.651 20.7348 115.16 20.4432C114.673 20.1515 114.287 19.7273 114.002 19.1705C113.72 18.6136 113.579 17.9375 113.579 17.142C113.579 16.3598 113.717 15.6787 113.992 15.0987C114.267 14.5154 114.65 14.0646 115.14 13.7464C115.631 13.425 116.198 13.2642 116.841 13.2642C117.338 13.2642 117.732 13.3471 118.024 13.5128C118.319 13.6752 118.544 13.8608 118.7 14.0696C118.859 14.2751 118.982 14.4441 119.068 14.5767H119.187V13.3636H120.321V21.2188C120.321 21.875 120.172 22.4086 119.873 22.8196C119.578 23.2339 119.181 23.5372 118.68 23.7294C118.183 23.925 117.629 24.0227 117.02 24.0227ZM116.98 19.8267C117.45 19.8267 117.848 19.719 118.173 19.5036C118.498 19.2881 118.745 18.9782 118.914 18.5739C119.083 18.1695 119.167 17.6856 119.167 17.1222C119.167 16.572 119.084 16.0864 118.919 15.6655C118.753 15.2446 118.508 14.9148 118.183 14.6761C117.858 14.4375 117.457 14.3182 116.98 14.3182C116.483 14.3182 116.068 14.4441 115.737 14.696C115.409 14.9479 115.162 15.286 114.996 15.7102C114.834 16.1345 114.752 16.6051 114.752 17.1222C114.752 17.6525 114.835 18.1214 115.001 18.5291C115.17 18.9335 115.419 19.2517 115.747 19.4837C116.078 19.7124 116.489 19.8267 116.98 19.8267Z" fill="white"/>
<path d="M148.17 17L145.59 19.59L147 21L152 16L147 11L145.59 12.41L148.17 15H132V17H148.17Z" fill="white"/>
</svg>
